<svg width="21" height="23" viewBox="0 0 21 23" fill="none" xmlns="http://www.w3.org/2000/svg">
<path d="M0.57269 18.4737H6.87228V19.8882C6.87228 20.7135 6.54043 21.505 5.94973 22.0886C5.35903 22.6721 4.55786 23 3.72248 23C2.88711 23 2.08594 22.6721 1.49524 22.0886C0.904542 21.505 0.57269 20.7135 0.57269 19.8882V18.4737ZM5.15421 5.03069C7.44497 5.03069 8.59035 8.28961 8.59035 10.5527C8.59035 11.6843 8.01766 12.8159 7.44497 14.5132L6.87228 16.2106H0.57269C0.57269 15.079 0 13.3817 0 10.5527C0 7.72382 2.28847 5.03069 5.15421 5.03069ZM18.9606 14.0583L18.7121 15.4513C18.5578 16.2554 18.0891 16.9671 17.4075 17.4323C16.7259 17.8974 15.8862 18.0786 15.0704 17.9364C14.2546 17.7943 13.5282 17.3404 13.0488 16.673C12.5693 16.0056 12.3753 15.1784 12.5087 14.3707L12.7561 12.9788L18.9606 14.0583ZM16.8119 0.0348097C19.6341 0.525911 21.414 3.57096 20.9169 6.35688C20.4198 9.14281 19.5574 10.7157 19.3592 11.8303L13.1547 10.7496L12.889 8.97986C12.6232 7.21009 12.259 5.99705 12.4572 4.88358C12.8546 2.65439 14.5555 -0.357845 16.8119 0.0348097Z" fill="#CCCCCC"/>
</svg>
