<svg width="18" height="18" viewBox="0 0 18 18" fill="none" xmlns="http://www.w3.org/2000/svg">
<path d="M16.3474 17.8289L11.4459 12.8764C10.886 13.3167 10.2454 13.6652 9.52435 13.922C8.80325 14.1788 8.03906 14.3072 7.23179 14.3072C5.23195 14.3072 3.55462 13.6145 2.19981 12.2293C0.844987 10.8441 0.188867 9.15218 0.231446 7.15358C0.274025 5.15498 1.00348 3.46307 2.4198 2.07784C3.83613 0.692613 5.54348 0 7.54184 0C9.54021 0 11.2179 0.692613 12.5749 2.07784C13.9319 3.46307 14.5877 5.15498 14.5422 7.15358C14.5247 7.96065 14.3798 8.72186 14.1074 9.43722C13.835 10.1526 13.4727 10.7854 13.0205 11.3357L16.413 14.8024L17.9219 16.2881L16.3474 17.8289ZM7.27949 12.1061C8.65552 12.1061 9.83576 11.6247 10.8202 10.6621C11.8047 9.69952 12.3114 8.53 12.3405 7.15358C12.3696 5.77716 11.9135 4.608 10.9723 3.64612C10.031 2.68424 8.87161 2.20257 7.49414 2.2011C6.11667 2.19963 4.93679 2.68131 3.95449 3.64612C2.9722 4.61094 2.46506 5.78009 2.4331 7.15358C2.40113 8.52706 2.85758 9.69658 3.80245 10.6621C4.74731 11.6277 5.90633 12.109 7.27949 12.1061Z" fill="#CCCCCC"/>
</svg>
