<svg width="21" height="17" viewBox="0 0 21 17" fill="none" xmlns="http://www.w3.org/2000/svg">
<path d="M19.6326 2.00386V2.00447V14.0313C19.6326 14.449 19.4898 14.7943 19.1904 15.0942C18.8915 15.3936 18.5468 15.5363 18.1287 15.5358H18.1281H2.09236C1.67467 15.5358 1.32986 15.393 1.03076 15.0939C0.731708 14.7948 0.588461 14.4496 0.587891 14.031V2.00447C0.587891 1.8891 0.598806 1.77928 0.620931 1.67445L1.59236 2.28159V3.10681V4.00894V14.0313V14.5313H2.09236H18.1281H18.6281V14.0313V4.00894V3.10681L17.8631 3.58494L10.1102 8.43049L2.59236 3.73181V2.90659L9.84524 7.43964L10.1102 7.60527L10.3752 7.43964L18.3931 2.42847L19.5999 1.67424C19.6219 1.77901 19.6327 1.88869 19.6326 2.00386ZM2.09236 1.50447H0.668153C0.73965 1.2992 0.85956 1.11377 1.03046 0.943168C1.33055 0.643589 1.67573 0.500569 2.09269 0.5H18.1281C18.5456 0.5 18.8908 0.642921 19.1907 0.942868C19.3617 1.11386 19.4815 1.29939 19.5528 1.50447H18.1281H2.09236Z" stroke="#CCCCCC"/>
</svg>
