<svg width="20" height="19" viewBox="0 0 20 19" fill="none" xmlns="http://www.w3.org/2000/svg">
<path fill-rule="evenodd" clip-rule="evenodd" d="M5.77759 4.20918C5.77759 3.10164 6.21756 2.03947 7.0007 1.25632C7.78385 0.473171 8.84603 0.0332031 9.95357 0.0332031C11.0611 0.0332031 12.1233 0.473171 12.9064 1.25632C13.6896 2.03947 14.1295 3.10164 14.1295 4.20918C14.1295 5.31672 13.6896 6.3789 12.9064 7.16204C12.1233 7.94519 11.0611 8.38516 9.95357 8.38516C8.84603 8.38516 7.78385 7.94519 7.0007 7.16204C6.21756 6.3789 5.77759 5.31672 5.77759 4.20918ZM5.77759 10.4731C4.39317 10.4731 3.06545 11.0231 2.08651 12.002C1.10758 12.981 0.557617 14.3087 0.557617 15.6931C0.557617 16.5238 0.887593 17.3204 1.47495 17.9078C2.06231 18.4951 2.85895 18.8251 3.6896 18.8251H16.2175C17.0482 18.8251 17.8448 18.4951 18.4322 17.9078C19.0195 17.3204 19.3495 16.5238 19.3495 15.6931C19.3495 14.3087 18.7996 12.981 17.8206 12.002C16.8417 11.0231 15.514 10.4731 14.1295 10.4731H5.77759Z" fill="#CCCCCC"/>
</svg>
